<svg xmlns="http://www.w3.org/2000/svg" version="1.1" xmlns:xlink="http://www.w3.org/1999/xlink" xmlns:svgjs="http://svgjs.dev/svgjs" width="1000" height="1000" viewBox="0 0 1000 1000"><rect width="1000" height="1000" fill="#000000"></rect><g transform="matrix(0.7,0,0,0.7,149.5757691976881,300.8654528596519)"><svg viewBox="0 0 396 226" data-background-color="#ffffff" preserveAspectRatio="xMidYMid meet" height="570" width="1000" xmlns="http://www.w3.org/2000/svg" xmlns:xlink="http://www.w3.org/1999/xlink"><g id="tight-bounds" transform="matrix(1,0,0,1,0.2399934253078868,-0.20699836160733298)"><svg viewBox="0 0 395.52 226.41399672321467" height="226.41399672321467" width="395.52"><g><svg viewBox="0 0 395.52 226.41399672321467" height="226.41399672321467" width="395.52"><g transform="matrix(1,0,0,1,0,167.5067626806615)"><svg viewBox="0 0 395.52 58.907234042553185" height="58.907234042553185" width="395.52"><g id="textblocktransform"><svg viewBox="0 0 395.52 58.907234042553185" height="58.907234042553185" width="395.52" id="textblock"><g><svg viewBox="0 0 395.52 58.907234042553185" height="58.907234042553185" width="395.52"><g transform="matrix(1,0,0,1,0,0)"><svg width="395.52" viewBox="0 -50 293.739990234375 43.75" height="58.907234042553185" data-palette-color="#89939e"><path d="M43.75-6.25L12.5-6.25 12.5-12.5 6.25-12.5 6.25-18.75 0-18.75 0-37.5 6.25-37.5 6.25-43.75 12.5-43.75 12.5-50 43.75-50 43.75-43.75 18.75-43.75 18.75-37.5 12.5-37.5 12.5-18.75 18.75-18.75 18.75-12.5 31.25-12.5 31.25-25 25-25 25-31.25 43.75-31.25 43.75-6.25ZM87.5-6.25L56.25-6.25 56.25-12.5 50-12.5 50-18.75 62.5-18.75 62.5-12.5 81.25-12.5 81.25-25 56.25-25 56.25-31.25 50-31.25 50-43.75 56.25-43.75 56.25-50 87.5-50 87.5-43.75 93.75-43.75 93.75-37.5 81.25-37.5 81.25-43.75 62.5-43.75 62.5-31.25 87.5-31.25 87.5-25 93.75-25 93.75-12.5 87.5-12.5 87.5-6.25ZM131.25-6.25L100-6.25 100-50 131.25-50 131.25-43.75 137.5-43.75 137.5-37.5 143.75-37.5 143.75-18.75 137.5-18.75 137.5-12.5 131.25-12.5 131.25-6.25ZM112.5-43.75L112.5-12.5 125-12.5 125-18.75 131.25-18.75 131.25-37.5 125-37.5 125-43.75 112.5-43.75ZM187.49-6.25L156.24-6.25 156.24-12.5 149.99-12.5 149.99-43.75 156.24-43.75 156.24-50 187.49-50 187.49-43.75 193.74-43.75 193.74-12.5 187.49-12.5 187.49-6.25ZM162.49-43.75L162.49-12.5 181.24-12.5 181.24-43.75 162.49-43.75ZM212.49-6.25L199.99-6.25 199.99-50 212.49-50 212.49-43.75 218.74-43.75 218.74-37.5 224.99-37.5 224.99-31.25 231.24-31.25 231.24-50 243.74-50 243.74-6.25 231.24-6.25 231.24-18.75 224.99-18.75 224.99-25 218.74-25 218.74-31.25 212.49-31.25 212.49-6.25ZM293.74-6.25L249.99-6.25 249.99-50 293.74-50 293.74-43.75 262.49-43.75 262.49-31.25 287.49-31.25 287.49-25 262.49-25 262.49-12.5 293.74-12.5 293.74-6.25Z" opacity="1" transform="matrix(1,0,0,1,0,0)" fill="#ffffff" class="wordmark-text-0" data-fill-palette-color="primary" id="text-0"></path></svg></g></svg></g></svg></g></svg></g><g transform="matrix(1,0,0,1,127.91320284349904,0)"><svg viewBox="0 0 139.6935943130019 139.6935943130019" height="139.6935943130019" width="139.6935943130019"><g><svg></svg></g><g id="icon-0"><svg viewBox="0 0 139.6935943130019 139.6935943130019" height="139.6935943130019" width="139.6935943130019"><g><path d="M0 69.847c0-38.575 31.271-69.847 69.847-69.847 38.575 0 69.847 31.271 69.847 69.847 0 38.575-31.271 69.847-69.847 69.847-38.575 0-69.847-31.271-69.847-69.847zM69.847 134.381c35.641 0 64.534-28.893 64.534-64.534 0-35.641-28.893-64.534-64.534-64.535-35.641 0-64.534 28.893-64.535 64.535 0 35.641 28.893 64.534 64.535 64.534z" data-fill-palette-color="tertiary" fill="#ffffff" stroke="transparent"></path></g><g transform="matrix(1,0,0,1,40.498098743852765,32.85598092468993)"><svg viewBox="0 0 58.69739682529637 73.98163246362205" height="73.98163246362205" width="58.69739682529637"><g><svg xmlns="http://www.w3.org/2000/svg" xmlns:xlink="http://www.w3.org/1999/xlink" version="1.1" x="0" y="0" viewBox="22 15 41.91400146484375 52.8280029296875" enable-background="new 0 0 80 80" xml:space="preserve" height="73.98163246362205" width="58.69739682529637" class="icon-s-0" data-fill-palette-color="accent" id="s-0"><g fill="#89939e" data-fill-palette-color="accent"><polygon fill="#ffffff" points="50.5,67.828 43.086,60.414 45.914,57.586 50.5,62.172 61.086,51.586 63.914,54.414  " data-fill-palette-color="accent"></polygon></g><g fill="#89939e" data-fill-palette-color="accent"><g fill="#89939e" data-fill-palette-color="accent"><path fill="#ffffff" d="M37 66H26c-2.206 0-4-1.794-4-4V19c0-2.206 1.794-4 4-4h24.828L60 24.172V46h-4V25.828L49.172 19H26v43h11V66z" data-fill-palette-color="accent"></path></g><g fill="#89939e" data-fill-palette-color="accent"><polygon fill="#ffffff" points="58,28 47,28 47,17 51,17 51,24 58,24   " data-fill-palette-color="accent"></polygon></g></g><g fill="#89939e" data-fill-palette-color="accent"><rect x="31" y="37" fill="#ffffff" width="20" height="4" data-fill-palette-color="accent"></rect></g><g fill="#89939e" data-fill-palette-color="accent"><rect x="31" y="45" fill="#ffffff" width="20" height="4" data-fill-palette-color="accent"></rect></g><g fill="#89939e" data-fill-palette-color="accent"><rect x="31" y="53" fill="#ffffff" width="8" height="4" data-fill-palette-color="accent"></rect></g></svg></g></svg></g></svg></g></svg></g><g></g></svg></g><defs></defs></svg><rect width="395.52" height="226.41399672321467" fill="none" stroke="none" visibility="hidden"></rect></g></svg></g></svg>